<svg xmlns="http://www.w3.org/2000/svg" viewBox="0 0 32 32" fill="none" aria-hidden="true">
  <rect width="32" height="32" rx="8" fill="#0073AA"/>
  <!-- wallet + split line: shared expenses -->
  <path
    fill="#fff"
    fill-rule="evenodd"
    d="M9 11.5c0-1.1.9-2 2-2h10a2 2 0 0 1 2 2v9a2 2 0 0 1-2 2H11a2 2 0 0 1-2-2v-9Zm2 .25V20c0 .414.336.75.75.75h8.5a.75.75 0 0 0 .75-.75v-8.25h-10Zm2.5-1.5h5a.75.75 0 0 1 0 1.5h-5a.75.75 0 0 1 0-1.5Z"
  />
  <path stroke="#fff" stroke-width="1.25" stroke-linecap="round" d="M16 14v6"/>
</svg>
